<svg width="28" height="28" viewBox="0 0 28 28" fill="none" xmlns="http://www.w3.org/2000/svg">
<path d="M15.7488 12.2497C15.7488 16.9163 17.4989 15.7497 18.0822 18.6663C18.6798 21.6549 16.1793 24.4997 13.1236 24.4997C10.068 24.4997 7.5818 21.7141 7.58215 18.6663C7.58215 15.9775 9.04043 14.2913 10.4988 13.4163C11.9572 12.5413 13.4155 11.6663 13.4155 9.33301" stroke="white" stroke-width="2.33333" stroke-linecap="round" stroke-linejoin="round"/>
<path d="M19.249 13.417C19.8324 13.417 22.4574 14.5837 22.749 17.5003C23.0129 20.1388 21.2907 24.2087 13.999 24.5003" stroke="white" stroke-width="2.33333" stroke-linecap="round"/>
<path d="M9.33302 23.333C4.75553 23.333 2.33378 20.5895 2.33301 17.4997C2.33301 14.1716 6.99969 11.083 8.16635 10.4997C9.33302 9.91634 9.91635 8.7775 9.91635 7.58301V5.24967C9.91635 4.44452 10.2778 4.08301 11.083 4.08301H16.333C16.9983 4.08301 17.4997 4.66634 17.4997 5.24967V6.99967C17.4997 8.19609 18.2401 9.14208 19.3006 9.67047C19.7437 9.89161 20.2113 10.103 20.689 10.2984C22.6201 11.0884 25.6664 12.3348 25.6664 15.7497C25.6664 18.5969 23.6813 20.9997 22.1664 20.9997" stroke="white" stroke-width="2.33333" stroke-linecap="round"/>
</svg>
