<svg width="28" height="28" viewBox="0 0 28 28" fill="none" xmlns="http://www.w3.org/2000/svg">
<path d="M4.66602 22.1667H23.3327V24.5H4.66602V22.1667ZM24.966 4.2C24.4993 3.73333 24.0327 3.5 23.3327 3.5H4.66602V15.1667C4.66602 16.45 5.13268 17.5 6.06602 18.4333C6.99935 19.3667 8.04935 19.8333 9.33268 19.8333H16.3327C17.616 19.8333 18.666 19.3667 19.5993 18.4333C20.5327 17.5 20.9993 16.45 20.9993 15.1667V11.6667H23.3327C24.0327 11.6667 24.4993 11.4333 24.966 10.9667C25.4327 10.5 25.666 10.0333 25.666 9.33333V5.83333C25.666 5.25 25.4327 4.66667 24.966 4.2ZM18.666 5.83333V15.1667C18.666 15.8667 18.4327 16.3333 17.966 16.8C17.4993 17.2667 17.0327 17.5 16.3327 17.5H9.33268C8.63268 17.5 8.16602 17.2667 7.69935 16.8C7.23268 16.3333 6.99935 15.75 6.99935 15.1667V5.83333H11.666V7.46667L9.56602 9.1C9.33268 9.21667 9.33268 9.45 9.33268 9.56667V14.5833C9.33268 14.9333 9.56602 15.1667 9.91602 15.1667H14.5827C14.9327 15.1667 15.166 14.9333 15.166 14.5833V9.56667C15.166 9.33333 15.0493 9.21667 14.9327 9.1L12.8327 7.46667V5.83333H18.666ZM23.3327 9.33333H20.9993V5.83333H23.3327V9.33333Z" fill="white"/>
</svg>
