<svg width="28" height="28" viewBox="0 0 28 28" fill="none" xmlns="http://www.w3.org/2000/svg">
<path d="M2.33301 10.501C2.33301 13.5952 3.56217 16.5626 5.7501 18.7506C7.93802 20.9385 10.9055 22.1676 13.9997 22.1676C17.0939 22.1676 20.0613 20.9385 22.2493 18.7506C24.4372 16.5626 25.6663 13.5952 25.6663 10.501" stroke="white" stroke-width="2.33333" stroke-linecap="round" stroke-linejoin="round"/>
<path d="M13.9997 22.1676C13.9997 19.0735 15.2288 16.106 17.4168 13.9181C19.6047 11.7301 22.5722 10.501 25.6663 10.501M2.33301 10.501C3.8651 10.501 5.38218 10.8027 6.79765 11.389C8.21311 11.9754 9.49924 12.8347 10.5826 13.9181C11.6659 15.0014 12.5253 16.2875 13.1116 17.703C13.6979 19.1185 13.9997 20.6356 13.9997 22.1676" stroke="white" stroke-width="2.33333" stroke-linecap="round" stroke-linejoin="round"/>
<path d="M13.9995 4.66699C15.1752 5.78939 16.0954 7.1519 16.6973 8.6618C17.2993 10.1717 17.5689 11.7935 17.4878 13.417M10.5112 13.417C10.4301 11.7935 10.6997 10.1717 11.3017 8.6618C11.9036 7.1519 12.8237 5.78939 13.9995 4.66699" stroke="white" stroke-width="2.33333" stroke-linecap="round" stroke-linejoin="round"/>
</svg>
