<svg width="33" height="32" viewBox="0 0 33 32" fill="none" xmlns="http://www.w3.org/2000/svg">
<g clip-path="url(#clip0_901_1892)">
<path fill-rule="evenodd" clip-rule="evenodd" d="M23.72 19.176C23.3227 18.9773 21.3747 18.02 21.012 17.8867C20.6493 17.7547 20.3853 17.6893 20.12 18.0867C19.856 18.4813 19.0973 19.3747 18.8667 19.6387C18.6347 19.904 18.404 19.936 18.008 19.7387C17.612 19.5387 16.3347 19.1213 14.8213 17.772C13.644 16.7213 12.848 15.424 12.6173 15.0267C12.3867 14.6307 12.592 14.416 12.7907 14.2187C12.9693 14.0413 13.1867 13.756 13.3853 13.5253C13.584 13.2933 13.6493 13.128 13.7813 12.8627C13.9147 12.5987 13.848 12.368 13.748 12.1693C13.6493 11.9707 12.8573 10.02 12.5267 9.22666C12.2053 8.45466 11.8787 8.55999 11.636 8.54666C11.404 8.53599 11.14 8.53333 10.876 8.53333C10.612 8.53333 10.1827 8.63199 9.82 9.02933C9.456 9.42533 8.43333 10.384 8.43333 12.3347C8.43333 14.284 9.852 16.168 10.0507 16.4333C10.2493 16.6973 12.844 20.7 16.8187 22.416C17.7653 22.824 18.5027 23.068 19.0773 23.2493C20.0267 23.552 20.8907 23.5093 21.5733 23.4067C22.3333 23.2933 23.9173 22.448 24.248 21.5227C24.5773 20.5973 24.5773 19.804 24.4787 19.6387C24.38 19.4733 24.116 19.3747 23.7187 19.176H23.72ZM16.4907 29.0467H16.4853C14.1246 29.0471 11.8072 28.4125 9.776 27.2093L9.296 26.924L4.30667 28.2333L5.63867 23.3693L5.32533 22.8707C4.00552 20.7698 3.30706 18.3384 3.31067 15.8573C3.31333 8.59066 9.22533 2.67866 16.496 2.67866C20.016 2.67866 23.3253 4.05199 25.8133 6.54266C27.0405 7.76477 28.0132 9.21808 28.675 10.8185C29.3369 12.419 29.6749 14.1348 29.6693 15.8667C29.6667 23.1333 23.7547 29.0467 16.4907 29.0467ZM27.7067 4.65066C26.2376 3.17189 24.4896 1.99938 22.5641 1.20106C20.6386 0.402745 18.5738 -0.00549603 16.4893 -6.39842e-06C7.75067 -6.39842e-06 0.636 7.11333 0.633333 15.856C0.629284 18.6383 1.35917 21.3725 2.74933 23.7827L0.5 32L8.90533 29.7947C11.2305 31.0615 13.8361 31.7253 16.484 31.7253H16.4907C25.2293 31.7253 32.344 24.612 32.3467 15.868C32.3531 13.7844 31.9463 11.7201 31.1499 9.7947C30.3535 7.86928 29.1832 6.12089 27.7067 4.65066Z" fill="white"/>
</g>
<defs>
<clipPath id="clip0_901_1892">
<rect width="32" height="32" fill="white" transform="translate(0.5)"/>
</clipPath>
</defs>
</svg>
